<?xml version="1.0" encoding="UTF-8"?>
<svg version="1.1" xmlns="http://www.w3.org/2000/svg" width="2174" height="640">
<path d="M0 0 C717.42 0 1434.84 0 2174 0 C2174 211.2 2174 422.4 2174 640 C1456.58 640 739.16 640 0 640 C0 428.8 0 217.6 0 0 Z " fill="#231F20" transform="translate(0,0)"/>
<path d="M0 0 C1.96188997 -0.00573832 1.96188997 -0.00573832 3.96341407 -0.01159257 C7.57405642 -0.02183736 11.18459907 -0.01969974 14.79524946 -0.01541197 C18.69726591 -0.01293824 22.59925876 -0.02196709 26.50126648 -0.02944946 C34.13921041 -0.04218189 41.77711916 -0.04399186 49.41507192 -0.0416492 C55.62754739 -0.03986375 61.84001222 -0.04162056 68.05248642 -0.04587364 C68.93782712 -0.04646883 69.82316783 -0.04706402 70.73533704 -0.04767724 C72.53415427 -0.04888905 74.33297149 -0.05010318 76.13178872 -0.05131962 C92.99284144 -0.06219018 109.85387416 -0.06003534 126.71492802 -0.05393478 C142.11721345 -0.04876971 157.51943557 -0.06001107 172.92170848 -0.07903299 C188.75693559 -0.09843879 204.59213279 -0.10666236 220.42737186 -0.10290974 C229.30943248 -0.10100139 238.19143926 -0.10344925 247.07349014 -0.11762428 C254.63763731 -0.12957427 262.20169752 -0.13090283 269.76584597 -0.11883412 C273.61988044 -0.11296985 277.47375614 -0.11177732 281.32777977 -0.12383652 C285.51950658 -0.13679903 289.71086008 -0.12617232 293.90258789 -0.11352539 C295.10175059 -0.12089968 296.3009133 -0.12827396 297.53641427 -0.13587171 C315.03019635 -0.02552483 330.96719243 4.29348451 344.83224487 15.26069641 C345.65466675 15.89491516 346.47708862 16.52913391 347.32443237 17.18257141 C357.61984673 25.71397396 365.31131001 37.34377839 368.83224487 50.26069641 C369.05396362 50.98128235 369.27568237 51.70186829 369.50411987 52.44429016 C370.78899853 57.17576898 370.91334156 61.65711159 370.87911987 66.55366516 C370.87235229 67.8107428 370.86558472 69.06782043 370.85861206 70.36299133 C370.84991089 71.31923401 370.84120972 72.27547668 370.83224487 73.26069641 C370.09680923 73.26167322 369.36137358 73.26265003 368.603652 73.26365644 C325.02211585 73.32192013 281.44062972 73.3957106 237.85915518 73.48968269 C232.62704078 73.50095095 227.39492612 73.51208938 222.16281128 73.52314758 C221.12118521 73.52535127 220.07955914 73.52755495 219.00636864 73.52982541 C202.13738014 73.56520414 185.2683917 73.59006503 168.39937985 73.61104343 C151.09204158 73.63280089 133.78475148 73.66585081 116.47745419 73.70939797 C105.79671579 73.73591559 95.11603743 73.75361016 84.43526775 73.76004245 C77.11247274 73.76529598 69.78975328 73.78151182 62.46699876 73.80636207 C58.2412648 73.82037822 54.01566611 73.82954744 49.78990746 73.82570457 C45.91952174 73.82229161 42.04942482 73.83267481 38.17909825 73.85393193 C36.78059015 73.85919546 35.38205201 73.85943928 33.98354423 73.85409204 C24.29203173 73.82081716 16.15205846 74.15002036 8.83224487 81.26069641 C5.78750036 85.17536793 4.54928211 89.31769062 4.83224487 94.26069641 C6.5343748 100.63304533 9.40922085 104.60845574 14.83224487 108.26069641 C18.34334452 109.90884984 21.09366227 110.51155101 24.96141243 110.51682281 C26.48667193 110.52617096 26.48667193 110.52617096 28.04274476 110.53570795 C29.15294319 110.53240898 30.26314162 110.52911 31.40698242 110.52571106 C32.59180706 110.53009233 33.7766317 110.5344736 34.99736011 110.53898764 C38.28272586 110.54917859 41.56795723 110.55047038 44.85333347 110.54805255 C48.39815485 110.54763299 51.94294191 110.55873226 55.48774719 110.56851196 C61.63073014 110.58396817 67.77369013 110.59237695 73.91669083 110.59622192 C82.81041259 110.60197265 91.7040727 110.62056552 100.59776722 110.64266247 C115.04310385 110.67838775 129.48844398 110.70669631 143.93380737 110.72895813 C145.23064134 110.73096062 145.23064134 110.73096062 146.55367397 110.73300356 C152.68819732 110.7424281 158.82272105 110.75158977 164.95724487 110.76069641 C171.95431548 110.77108819 178.95138586 110.78160749 185.94845581 110.79243469 C186.81013847 110.79376543 187.67182113 110.79509618 188.55961539 110.79646724 C202.94377235 110.81892263 217.32790311 110.84913195 231.71203315 110.88482714 C240.57892889 110.90645494 249.44578384 110.92110238 258.31270449 110.9266659 C264.39405809 110.93092386 270.47537288 110.94218991 276.55670495 110.95888984 C280.06183339 110.96826366 283.56688931 110.97442079 287.07203102 110.97182655 C290.87997184 110.97066407 294.68769437 110.98171115 298.49560547 110.99568176 C299.59241957 110.99238279 300.68923367 110.98908381 301.81928456 110.98568487 C322.12240018 111.10823464 337.78560494 118.60279903 352.51974487 132.38569641 C366.48294354 146.72843839 371.14578646 163.91024306 371.20333862 183.41304016 C371.21232698 184.99755934 371.22144914 186.58207777 371.23069763 188.16659546 C371.24713748 191.48419745 371.2548775 194.80169922 371.25778198 198.11933899 C371.26313429 202.32161103 371.30070377 206.5229074 371.34652615 210.72490597 C371.37663563 213.99997166 371.38351291 217.27481307 371.38450813 220.55000496 C371.38865038 222.09621672 371.40083553 223.64243307 371.42202568 225.18850517 C371.69212571 246.61519569 364.70899575 264.73637199 349.81271362 280.38179016 C337.93070464 291.69064101 321.63739113 299.37728615 305.11430168 299.38933086 C303.9915858 299.39255531 302.86886991 299.39577976 301.71213233 299.39910191 C300.48880042 299.39755331 299.2654685 299.39600471 298.00506592 299.39440918 C296.69758585 299.39667474 295.39010578 299.39894029 294.04300511 299.4012745 C290.41981703 299.40738521 286.79665206 299.40725976 283.17346001 299.40608013 C279.26327535 299.40587593 275.35309808 299.41139677 271.44291687 299.4161377 C263.78351785 299.42444136 256.12412653 299.42719243 248.46472339 299.42775007 C242.23642098 299.42822547 236.0081211 299.43028141 229.77981949 299.4334507 C212.11270843 299.44225734 194.44560344 299.44687019 176.77849017 299.44612022 C175.82620969 299.44608027 174.87392921 299.44604031 173.89279175 299.44599915 C172.46262184 299.44593782 172.46262184 299.44593782 171.0035596 299.44587526 C155.56027238 299.44546903 140.11700957 299.45503278 124.6737294 299.46913751 C108.80810567 299.48351333 92.94249382 299.490407 77.07686341 299.48954374 C68.17306686 299.48921213 59.26929589 299.4919431 50.36550522 299.50272179 C42.78255188 299.51184276 35.1996357 299.51398902 27.61667924 299.50721236 C23.75091624 299.5039549 19.88522446 299.50386232 16.01946831 299.51256561 C11.82003395 299.52192247 7.6207634 299.51563421 3.42132568 299.50793457 C2.2113781 299.51307813 1.00143051 299.5182217 -0.24518216 299.52352113 C-22.90501929 299.43197913 -39.94400746 291.45204374 -55.88259888 275.54975891 C-66.73896129 263.74310482 -72.41679891 248.75626734 -72.23025513 232.88569641 C-72.22574341 232.14964172 -72.22123169 231.41358704 -72.21658325 230.65522766 C-72.20490655 228.85701483 -72.18697524 227.05884444 -72.16775513 225.26069641 C-71.42846726 225.26047904 -70.68917939 225.26026168 -69.92748886 225.26003772 C-26.11206587 225.24652211 17.70326777 225.20704217 61.51863378 225.13384079 C66.77950189 225.12507403 72.04037033 225.11652422 77.30123901 225.10810852 C78.348584 225.10642946 79.395929 225.1047504 80.47501171 225.10302045 C97.43386877 225.07635006 114.39269204 225.06725534 131.35156792 225.06465498 C148.75271962 225.06159562 166.15377359 225.03965088 183.55488116 225.00017184 C194.29247704 224.97640606 205.02987784 224.967374 215.76749641 224.9771833 C223.13051554 224.98249869 230.49335984 224.96947124 237.8563292 224.94203351 C242.10455475 224.92674396 246.35238902 224.91952885 250.60062599 224.9340992 C254.49281726 224.94726966 258.38425094 224.93731985 262.276357 224.90925869 C263.6816114 224.90315838 265.0869333 224.90542156 266.49215268 224.91706715 C274.77135979 224.98029169 281.13611705 224.45516254 287.83224487 219.26069641 C291.14641632 215.60526375 293.07805393 211.13740147 293.45724487 206.19819641 C292.48862553 200.09589458 289.77515269 196.15378608 285.39474487 191.88569641 C278.86895135 187.74738833 272.53403604 187.98003138 265.05027771 188.01586914 C263.85517025 188.01360457 262.6600628 188.01133999 261.42873996 188.0090068 C258.11910995 188.0046302 254.80970639 188.0091392 251.50009787 188.01731741 C247.92728134 188.02391595 244.35447991 188.01889526 240.78166199 188.01509094 C234.59067801 188.00987076 228.39972534 188.01136021 222.20874214 188.01686668 C212.41247636 188.0250911 202.61627782 188.01383949 192.82002258 187.99966431 C189.46525303 187.99506322 186.1104833 187.99061283 182.75571346 187.98622608 C181.91730879 187.98512794 181.07890412 187.9840298 180.21509324 187.98289838 C170.67447519 187.97072771 161.13385498 187.96317382 151.5932312 187.95722961 C150.72131812 187.95668155 149.84940505 187.9561335 148.95107036 187.95556883 C134.83868518 187.94711945 120.7263191 187.95044283 106.61393381 187.95638397 C92.10766057 187.96201204 77.60148309 187.94841378 63.0952391 187.91883117 C54.1583368 187.90133872 45.22171212 187.89959969 36.28481131 187.91847632 C30.15105997 187.93013028 24.01749498 187.92355605 17.88376773 187.90300711 C14.3516605 187.89174781 10.82003446 187.8883722 7.28794861 187.90718269 C-19.88525156 188.02175633 -19.88525156 188.02175633 -32.16775513 182.26069641 C-33.68217776 181.57657197 -33.68217776 181.57657197 -35.22719479 180.87862682 C-43.1003916 177.15503052 -49.07087372 171.33961941 -55.16775513 165.26069641 C-55.76459106 164.6870636 -56.361427 164.11343079 -56.97634888 163.52241516 C-60.51420464 159.81198107 -62.90663285 155.4214275 -65.35525513 150.94819641 C-65.68880005 150.34394836 -66.02234497 149.73970032 -66.36599731 149.11714172 C-72.05124566 138.30200161 -72.64273973 127.95007723 -72.63650513 115.96772766 C-72.64362395 114.29159293 -72.6513254 112.61546059 -72.65957642 110.93933105 C-72.67296573 107.4369275 -72.67461613 103.93474912 -72.66873169 100.43232727 C-72.66285395 95.98551647 -72.69337269 91.53980439 -72.73384857 87.09320545 C-72.75994418 83.63290785 -72.76258318 80.17286676 -72.75895691 76.71248436 C-72.76062916 75.07532184 -72.77008472 73.43814494 -72.7881012 71.8010807 C-72.97883191 52.32390401 -67.02770291 35.87867777 -53.48635864 21.48970032 C-38.65773533 6.3784603 -20.82014722 -0.06489322 0 0 Z " fill="#FEFEFE" transform="translate(622.1677551269531,97.73930358886719)"/>
<path d="M0 0 C0.75169464 0.26005829 1.50338928 0.52011658 2.27786255 0.78805542 C15.88005265 5.51082135 29.02936347 10.90565973 41.875 17.4375 C42.73544922 17.87384766 43.59589844 18.31019531 44.48242188 18.75976562 C62.51138661 28.02827377 79.64978905 39.17180766 95.26855469 52.10742188 C96.33441927 52.98991887 97.40537049 53.86631018 98.48144531 54.73632812 C106.67025729 61.3604304 114.21745302 68.57902489 121.6875 76 C122.55898682 76.86222168 123.43047363 77.72444336 124.32836914 78.61279297 C130.26566015 84.57889207 135.6432733 90.84856192 140.875 97.4375 C141.82824326 98.60643513 142.7824725 99.77456792 143.73828125 100.94140625 C171.81742601 136.0067497 191.06094095 176.93309694 201.875 220.4375 C202.08350586 221.27297363 202.29201172 222.10844727 202.50683594 222.96923828 C204.82560185 232.49260149 206.36778558 242.09521799 207.625 251.8125 C207.81690918 253.22692383 207.81690918 253.22692383 208.01269531 254.66992188 C209.24764926 265.05745004 208.875 274.74729087 208.875 285.4375 C180.825 285.4375 152.775 285.4375 123.875 285.4375 C122.885 276.1975 121.895 266.9575 120.875 257.4375 C114.71890735 221.16052545 101.16821039 187.8002016 78.875 158.4375 C78.20984375 157.55964844 77.5446875 156.68179688 76.859375 155.77734375 C71.57070534 148.99451742 65.78380788 142.67775763 59.875 136.4375 C58.9984375 135.50679687 58.121875 134.57609375 57.21875 133.6171875 C45.25331235 121.26463275 31.3735017 111.58574995 16.875 102.4375 C15.91352051 101.83059326 15.91352051 101.83059326 14.93261719 101.21142578 C-8.92369369 86.41950378 -35.57707584 77.84704827 -63.125 73.4375 C-64.22908203 73.25799805 -65.33316406 73.07849609 -66.47070312 72.89355469 C-76.46936106 71.40308808 -86.28028553 71.03730648 -96.375 71.0625 C-97.20104736 71.06304382 -98.02709473 71.06358765 -98.87817383 71.06414795 C-135.23880014 71.17345719 -170.11673813 80.133433 -202.125 97.4375 C-203.0229126 97.91654785 -203.0229126 97.91654785 -203.93896484 98.40527344 C-222.22896826 108.22574406 -238.06492056 121.24464423 -253.125 135.4375 C-253.8571875 136.12714844 -254.589375 136.81679687 -255.34375 137.52734375 C-275.49636019 157.08017387 -289.94887671 181.90717941 -301.125 207.4375 C-301.64707031 208.61441406 -302.16914062 209.79132813 -302.70703125 211.00390625 C-310.91449517 231.07862671 -315.80994322 254.36985104 -316.77929688 275.984375 C-316.94686086 279.32251244 -317.30801049 282.16954197 -318.125 285.4375 C-346.175 285.4375 -374.225 285.4375 -403.125 285.4375 C-403.125 275.49123263 -403.08275176 266.05790221 -402 256.25 C-401.86948242 255.06510986 -401.73896484 253.88021973 -401.60449219 252.65942383 C-397.98288026 222.11863546 -389.60134534 193.46301421 -377.125 165.4375 C-376.74053711 164.5707666 -376.35607422 163.7040332 -375.95996094 162.81103516 C-357.44887161 121.4706745 -327.79841301 82.50838237 -292.125 54.4375 C-290.41611141 53.00066013 -288.70779321 51.56314165 -287 50.125 C-260.03199315 28.20164141 -228.85770884 11.8898701 -196.125 0.4375 C-195.42890625 0.19306152 -194.7328125 -0.05137695 -194.015625 -0.30322266 C-174.98924306 -6.87163158 -154.97662335 -10.51936377 -135.125 -13.5625 C-133.9817627 -13.74256592 -133.9817627 -13.74256592 -132.81542969 -13.92626953 C-89.31151171 -20.50381098 -41.30907436 -14.43496284 0 0 Z " fill="#FEFEFE" transform="translate(1904.125,111.5625)"/>
<path d="M0 0 C2.53656189 -0.03228283 5.07270529 -0.05572626 7.609375 -0.07421875 C8.67551025 -0.08914368 8.67551025 -0.08914368 9.76318359 -0.10437012 C27.26001612 -0.19978912 44.30115342 8.32763943 56.75 20.25 C73.05596485 37.25280095 77.47937996 56.91339106 77.38818359 79.6628418 C77.39225886 81.39088267 77.39760606 83.11892092 77.40411377 84.84695435 C77.41767661 89.49760823 77.41253563 94.14806029 77.40297651 98.79871726 C77.3953259 103.6875787 77.40244007 108.57642406 77.40713501 113.46528625 C77.41257539 121.66837637 77.40544461 129.87138515 77.39111328 138.07446289 C77.37477374 147.53583045 77.38009169 156.99700415 77.3965925 166.45836705 C77.41023695 174.61078755 77.41211307 182.76314995 77.40427649 190.91557819 C77.39961832 195.77215266 77.39892408 200.6286362 77.40888596 205.4852047 C77.41759717 210.04985062 77.41145837 214.61424806 77.39420319 219.17886734 C77.39026114 220.84647651 77.39133291 222.51410685 77.39799118 224.18170738 C77.43060423 233.18462463 77.05103957 241.4115809 74 250 C73.62359375 251.093125 73.2471875 252.18625 72.859375 253.3125 C66.19764494 269.45077563 55.85748186 283.10871769 40 291 C38.72576172 291.67289062 38.72576172 291.67289062 37.42578125 292.359375 C25.88980924 298.08525892 13.88078822 299.45110824 1.14831543 299.38768005 C-0.18610469 299.39186552 -1.52052124 299.39734961 -2.85493135 299.40399987 C-6.4790529 299.41831399 -10.10294433 299.4142544 -13.72707772 299.40683305 C-17.65217421 299.40206858 -21.57722322 299.41463985 -25.50230408 299.42485046 C-33.17466772 299.44197898 -40.84694926 299.44289103 -48.51932704 299.43763756 C-54.75886989 299.43358415 -60.9983886 299.43505327 -67.2379303 299.44038582 C-68.57368435 299.44150845 -68.57368435 299.44150845 -69.93642333 299.44265376 C-71.74587262 299.44418535 -73.55532191 299.4457237 -75.36477119 299.44726873 C-92.30308186 299.46097179 -109.24134625 299.45557113 -126.17965585 299.44408352 C-141.65345148 299.43414945 -157.12712756 299.44709872 -172.60090476 299.47101771 C-188.51878268 299.49543644 -204.43660498 299.50501001 -220.35450125 299.49836498 C-229.27950615 299.49487944 -238.20441912 299.49706101 -247.12940979 299.51461601 C-254.7253291 299.52937257 -262.32109169 299.52992826 -269.91700804 299.5125451 C-273.78719713 299.50406181 -277.65710666 299.50181966 -281.52728081 299.51719666 C-285.07921515 299.53113383 -288.63063283 299.52616663 -292.18253797 299.50695742 C-294.05643845 299.50147428 -295.93036584 299.51539306 -297.80421495 299.53031152 C-316.81669997 299.36725867 -334.02201277 291.50889611 -347.59716797 278.43505859 C-360.10873136 265.63607328 -367.08535464 248.07989575 -367.01953125 230.28125 C-367.01671143 229.29189453 -367.0138916 228.30253906 -367.01098633 227.28320312 C-367.00736084 226.52974609 -367.00373535 225.77628906 -367 225 C-366.2805153 224.99940291 -365.5610306 224.99880582 -364.81974334 224.99819064 C-322.16491092 224.96228657 -279.51014924 224.90563203 -236.85538219 224.82207905 C-231.73228307 224.81206175 -226.60918364 224.80221759 -221.48608398 224.79248047 C-220.46617915 224.7905391 -219.44627431 224.78859772 -218.39546327 224.78659752 C-201.88738916 224.75558744 -185.37932896 224.73859963 -168.87123122 224.72680578 C-151.92886256 224.71438909 -134.98656677 224.68687597 -118.04424411 224.64538693 C-107.59227944 224.62026641 -97.14043564 224.60688167 -86.68844036 224.60857043 C-79.51838544 224.60860021 -72.34845353 224.59394894 -65.17844655 224.56783572 C-61.0434378 224.55320695 -56.90868129 224.54497203 -52.77365112 224.55419731 C-48.98259903 224.56251182 -45.19205273 224.55225453 -41.40107546 224.52766338 C-39.3910947 224.51933279 -37.38106178 224.53048742 -35.37109965 224.54249835 C-24.85265685 224.44324963 -15.43763872 222.57945068 -7.70689678 214.99259758 C0.45527044 205.46424482 -0.28276382 195.10247957 -0.34057617 183.22998047 C-0.3321148 181.22852075 -0.32146696 179.22706928 -0.30880737 177.22563171 C-0.28073889 171.81512385 -0.28311895 166.4050135 -0.29110122 160.99445486 C-0.2942326 155.33162217 -0.26917338 149.66891468 -0.24714661 144.00613403 C-0.20973742 133.29311427 -0.19756045 122.58022144 -0.1945222 111.8671428 C-0.189828 99.66635646 -0.156893 87.46569702 -0.12162435 75.26496673 C-0.04973226 50.17665984 -0.01317982 25.08840159 0 0 Z " fill="#FEFEFE" transform="translate(428,98)"/>
<path d="M0 0 C1.04239964 0.00449409 1.04239964 0.00449409 2.10585785 0.00907898 C3.80927659 0.01685569 5.5126756 0.02876427 7.21606445 0.04150391 C7.21826429 1.57241401 7.21826429 1.57241401 7.22050858 3.13425159 C7.25713523 27.99020161 7.31662642 52.8460172 7.39996719 77.70185566 C7.43974349 89.72205638 7.47214319 101.74219177 7.48706055 113.76245117 C7.50008431 124.24168888 7.52706766 134.72078274 7.57067752 145.19993943 C7.59327582 150.74643159 7.6089761 156.29274643 7.6079483 161.83928871 C7.60720074 167.06536709 7.62519048 172.29105373 7.65723228 177.51703072 C7.66571498 179.42972272 7.66749235 181.34245874 7.66186714 183.25516129 C7.61020123 201.26515573 7.61020123 201.26515573 16.44262695 216.54150391 C23.06467474 222.14253111 29.61592943 224.1582615 38.18806171 224.18016911 C39.39282164 224.18564355 40.59758156 224.19111799 41.83884937 224.19675833 C43.172214 224.19783445 44.50557872 224.19881916 45.83894348 224.19972229 C47.2580667 224.20428942 48.67718858 224.20928967 50.09630889 224.21468586 C53.99574903 224.22825914 57.89518046 224.23568298 61.79463804 224.24211252 C65.99978047 224.25012001 70.20490479 224.26381659 74.41003418 224.27682495 C81.69565577 224.29858273 88.98127921 224.31672978 96.26691628 224.33242989 C106.80074647 224.35513486 117.3345566 224.38327683 127.86836978 224.41274916 C144.95846162 224.46041737 162.04856167 224.50368365 179.13867188 224.54418945 C195.74089191 224.5835483 212.34310466 224.62497546 228.9453125 224.66918945 C229.96853837 224.67191373 230.99176423 224.674638 232.04599694 224.67744482 C237.1791803 224.69112437 242.31236355 224.70484463 247.44554675 224.71858513 C290.03570412 224.8325378 332.62587726 224.93934984 375.21606445 225.04150391 C375.22623998 226.79580494 375.23348576 228.55012313 375.23950195 230.30444336 C375.24385254 231.2813765 375.24820312 232.25830963 375.25268555 233.2648468 C375.04395185 249.09129666 367.73797649 264.43578977 357.21606445 276.04150391 C356.57411133 276.78658203 355.9321582 277.53166016 355.27075195 278.29931641 C343.98696439 290.58240618 326.80010258 298.19498026 310.19184268 299.22996593 C306.74391581 299.3039012 303.30084434 299.31770326 299.85212708 299.30892944 C298.5351789 299.31346056 297.21823073 299.31799167 295.86137503 299.32266009 C292.23019381 299.33482201 288.59910518 299.33463772 284.96790826 299.33227134 C281.04204749 299.33186144 277.11621573 299.3429188 273.19036865 299.35238647 C265.50778102 299.36896014 257.82522409 299.37449438 250.14262006 299.37561123 C243.89393617 299.37656345 237.64526235 299.38068243 231.39658165 299.38701248 C213.65762129 299.40461515 195.91868507 299.4138529 178.17971591 299.41235153 C177.22451122 299.41227162 176.26930653 299.41219171 175.28515625 299.41210938 C174.32877735 299.41202761 173.37239845 299.41194585 172.38703837 299.41186161 C156.89426861 299.41104904 141.40159615 299.43018205 125.90885452 299.45838611 C109.97867377 299.48715632 94.04854041 299.50092412 78.11833304 299.49919856 C69.18372879 299.49853607 60.24922653 299.50396606 51.31464577 299.52555466 C43.70658879 299.54382101 36.09868006 299.54806923 28.49061058 299.53453581 C24.61424394 299.52803349 20.73816125 299.52778895 16.86182213 299.54524231 C13.30290044 299.56110066 9.74448479 299.55798159 6.18557449 299.54067405 C4.31022728 299.53620723 2.43486354 299.55116072 0.55957919 299.56715333 C-18.42334113 299.41517584 -35.0147026 292.11807727 -48.78393555 279.04150391 C-61.17748258 266.19114344 -68.88325554 249.54991 -68.92437744 231.61192322 C-68.92734856 230.88501315 -68.93031969 230.15810309 -68.93338084 229.40916544 C-68.94202078 226.98443505 -68.9435721 224.5597543 -68.94506836 222.13500977 C-68.94969997 220.39169205 -68.95472509 218.64837535 -68.96011353 216.90505981 C-68.97320888 212.17535461 -68.97967721 207.44566359 -68.98412418 202.7159431 C-68.98706032 199.75658082 -68.9911662 196.79722236 -68.99562836 193.83786201 C-69.00929747 184.56605769 -69.01896627 175.29426218 -69.02283025 166.02244848 C-69.02730581 155.34355715 -69.04483288 144.66479415 -69.07383084 133.98594183 C-69.09550132 125.71646902 -69.10553743 117.44703218 -69.10687137 109.1775313 C-69.10791581 104.24586169 -69.11374613 99.31431281 -69.13169098 94.38267326 C-69.14826406 89.7377191 -69.15028269 85.0929752 -69.14155197 80.44800186 C-69.14078644 78.75220358 -69.14505969 77.05639357 -69.15501022 75.36062431 C-69.22522569 62.63851916 -68.27651213 50.5502019 -62.28393555 39.04150391 C-61.94209229 38.37634766 -61.60024902 37.71119141 -61.24804688 37.02587891 C-52.33446199 20.45202757 -37.86807316 8.71685681 -19.99487305 2.78369141 C-13.16327429 0.83251351 -7.10965301 -0.05840126 0 0 Z " fill="#FEFEFE" transform="translate(1105.783935546875,97.95849609375)"/>
<path d="M0 0 C1.76007072 1.61408676 3.5090861 3.2402695 5.25 4.875 C5.77609863 5.36709961 6.30219727 5.85919922 6.84423828 6.36621094 C39.46801109 37.13411217 62.83890404 82.72930669 65.25 127.875 C65.25 132.495 65.25 137.115 65.25 141.875 C39.18 141.875 13.11 141.875 -13.75 141.875 C-14.74 134.285 -15.73 126.695 -16.75 118.875 C-23.5695436 89.46571821 -41.36744281 63.37887723 -66.87744141 47.02001953 C-94.19735264 30.31462401 -125.86979759 24.72200285 -157.1171875 31.83984375 C-186.14846514 38.95889927 -211.80687688 57.64417898 -227.75 82.875 C-234.02093838 93.38047901 -238.93903703 104.03355402 -241.875 115.9375 C-242.11331543 116.88181885 -242.11331543 116.88181885 -242.35644531 117.84521484 C-244.20453124 125.82310997 -244.7788727 133.62041796 -245.75 141.875 C-271.82 141.875 -297.89 141.875 -324.75 141.875 C-324.75 133.04004252 -324.40077629 125.43541626 -323.05322266 116.85351562 C-322.75395492 114.90080568 -322.49194574 112.94250346 -322.23046875 110.984375 C-315.71561337 65.54686579 -287.48981868 20.3764009 -251.1875 -7.5 C-249.0566332 -9.0622879 -246.91055411 -10.6040323 -244.75 -12.125 C-243.91879639 -12.72272217 -243.91879639 -12.72272217 -243.07080078 -13.33251953 C-218.38716726 -31.00765184 -190.58674252 -41.91742613 -160.75 -47.125 C-160.04101562 -47.25487305 -159.33203125 -47.38474609 -158.6015625 -47.51855469 C-101.98389721 -57.50497095 -42.55319387 -37.44956932 0 0 Z " fill="#FEFEFE" transform="translate(1936.75,255.125)"/>
<path d="M0 0 C9.7453125 -0.12375 9.7453125 -0.12375 19.6875 -0.25 C21.70963623 -0.28641602 23.73177246 -0.32283203 25.81518555 -0.36035156 C39.27185576 -0.5017411 51.70126481 0.2668704 62 10 C62.82951172 10.75216797 62.82951172 10.75216797 63.67578125 11.51953125 C70.64830396 18.63046632 72.36837437 27.9348948 72.4375 37.5625 C72.27028723 48.76575587 69.90993997 58.43040841 62.28515625 66.90625 C50.83376841 77.95953233 36.63719665 76.49002446 21.8125 76.25 C14.614375 76.1675 7.41625 76.085 0 76 C0 50.92 0 25.84 0 0 Z " fill="#F8F8F8" transform="translate(445,439)"/>
<path d="M0 0 C18 0 18 0 21.90429688 2.79125977 C23.13708496 4.6466217 23.13708496 4.6466217 24.21875 6.69140625 C24.6578772 7.38830063 25.09700439 8.08519501 25.54943848 8.8032074 C26.93029531 11.02415547 28.21393021 13.28563155 29.5 15.5625 C30.38717747 17.0290686 31.28038386 18.49200763 32.1796875 19.95117188 C33.95248643 22.84251289 35.69060492 25.75069282 37.40625 28.67626953 C40.74219217 34.31251571 44.40857966 39.71837409 48.08398438 45.13647461 C50 48 50 48 51 50 C51.33 33.83 51.66 17.66 52 1 C57.28 1 62.56 1 68 1 C68 25.75 68 50.5 68 76 C50 76 50 76 46.18359375 72.2265625 C45.10453145 70.160273 44.04672305 68.08285828 43 66 C41.01696798 62.85832306 38.9245445 59.7911054 36.84765625 56.7109375 C35.83731765 55.17928843 34.82969397 53.64584585 33.82446289 52.11083984 C28.55218132 44.07222714 23.27561332 36.03642652 18 28 C17.67 44.17 17.34 60.34 17 77 C11.39 77 5.78 77 0 77 C0 51.59 0 26.18 0 0 Z " fill="#FBFBFB" transform="translate(1485,439)"/>
<path d="M0 0 C18 0 18 0 23.16796875 5.09765625 C24.58897597 7.40607556 25.90217239 9.68493283 27.1875 12.0625 C27.91383062 13.28753503 28.64685201 14.50862571 29.38623047 15.72583008 C30.89246564 18.22092376 32.36424672 20.73186165 33.81298828 23.26074219 C36.50370516 27.91814055 39.45299359 32.38879067 42.42553711 36.86962891 C45.31382775 41.22659081 48.15212868 45.6165118 51 50 C51.33 33.83 51.66 17.66 52 1 C57.28 1 62.56 1 68 1 C68 25.75 68 50.5 68 76 C62.06 76 56.12 76 50 76 C46.10017412 72.10017412 44.46481204 69.71506508 42 65 C40.71516339 62.94580632 39.38481201 60.92611811 38.04858398 58.9050293 C36.61891309 56.7407856 35.21713586 54.56056052 33.8203125 52.375 C30.69749096 47.51006387 27.48943561 42.70398671 24.26025391 37.90917969 C22.07223979 34.65051321 20.02232032 31.37053387 18 28 C17.67 44.17 17.34 60.34 17 77 C11.39 77 5.78 77 0 77 C0 51.59 0 26.18 0 0 Z " fill="#FCFCFC" transform="translate(296,439)"/>
<path d="M0 0 C19.8 0 39.6 0 60 0 C60 4.95 60 9.9 60 15 C45.81 15 31.62 15 17 15 C17 20.28 17 25.56 17 31 C30.2 31 43.4 31 57 31 C57 35.29 57 39.58 57 44 C43.8 44 30.6 44 17 44 C17 49.94 17 55.88 17 62 C31.52 62 46.04 62 61 62 C61 66.95 61 71.9 61 77 C40.87 77 20.74 77 0 77 C0 51.59 0 26.18 0 0 Z " fill="#F9F8F8" transform="translate(1768,439)"/>
<path d="M0 0 C0.74886475 0.00523682 1.49772949 0.01047363 2.26928711 0.01586914 C3.07817383 0.0190918 3.88706055 0.02231445 4.72045898 0.02563477 C5.5705957 0.03401367 6.42073242 0.04239258 7.29663086 0.05102539 C8.15063477 0.05553711 9.00463867 0.06004883 9.88452148 0.06469727 C12.00108749 0.07652166 14.11761771 0.0944577 16.23413086 0.11352539 C19.83522769 7.74242169 23.00178786 15.48375619 25.99890137 23.36782837 C31.19934359 37.04176217 36.63691592 50.61011196 42.22045898 64.13183594 C42.62424774 65.11511368 42.62424774 65.11511368 43.03619385 66.11825562 C43.76523587 67.89355751 44.49808789 69.66729343 45.23120117 71.44091797 C46.23413086 74.11352539 46.23413086 74.11352539 46.23413086 76.11352539 C39.96413086 76.11352539 33.69413086 76.11352539 27.23413086 76.11352539 C26.40913086 73.84477539 25.58413086 71.57602539 24.73413086 69.23852539 C24.4730957 68.52583496 24.21206055 67.81314453 23.94311523 67.07885742 C22.23413086 62.33574761 22.23413086 62.33574761 22.23413086 60.11352539 C12.00413086 60.11352539 1.77413086 60.11352539 -8.76586914 60.11352539 C-9.75586914 63.74352539 -10.74586914 67.37352539 -11.76586914 71.11352539 C-12.42586914 72.76352539 -13.08586914 74.41352539 -13.76586914 76.11352539 C-19.70586914 76.11352539 -25.64586914 76.11352539 -31.76586914 76.11352539 C-30.64096719 69.36411367 -30.64096719 69.36411367 -29.37402344 66.32836914 C-29.09209137 65.6438266 -28.8101593 64.95928406 -28.51968384 64.2539978 C-28.21291718 63.52701691 -27.90615051 62.80003601 -27.59008789 62.05102539 C-27.26849701 61.27417389 -26.94690613 60.49732239 -26.61557007 59.69692993 C-25.56706602 57.16677789 -24.51019226 54.64021241 -23.45336914 52.11352539 C-21.99487589 48.60164826 -20.54061381 45.08802348 -19.08618164 41.57446289 C-18.721241 40.69454681 -18.35630035 39.81463074 -17.9803009 38.90805054 C-14.25061236 29.90228938 -10.63608178 20.85153075 -7.05722046 11.78491211 C-6.3487219 9.99005295 -5.63745429 8.19628757 -4.92602539 6.40258789 C-4.53036377 5.39921387 -4.13470215 4.39583984 -3.72705078 3.36206055 C-2.35457758 0.15137268 -2.35457758 0.15137268 0 0 Z " fill="#FBFBFB" transform="translate(1266.765869140625,438.886474609375)"/>
<path d="M0 0 C1.18613892 0.00785522 1.18613892 0.00785522 2.39624023 0.01586914 C3.67724609 0.02070313 3.67724609 0.02070313 4.98413086 0.02563477 C5.88196289 0.03401367 6.77979492 0.04239258 7.70483398 0.05102539 C8.6065332 0.05553711 9.50823242 0.06004883 10.43725586 0.06469727 C12.67234712 0.07652315 14.90730835 0.09300319 17.14233398 0.11352539 C22.10869273 11.8795219 27.03683025 23.63011319 31.43530273 35.62133789 C35.04646167 45.28021112 39.08206012 54.78427014 43.00073242 64.32128906 C43.37746094 65.24272705 43.75418945 66.16416504 44.14233398 67.11352539 C44.52164063 67.99693604 44.90094727 68.88034668 45.29174805 69.79052734 C46.14233398 72.11352539 46.14233398 72.11352539 46.14233398 75.11352539 C40.20233398 75.11352539 34.26233398 75.11352539 28.14233398 75.11352539 C26.14233398 70.11352539 24.14233398 65.11352539 22.14233398 60.11352539 C12.24233398 60.11352539 2.34233398 60.11352539 -7.85766602 60.11352539 C-9.83766602 65.39352539 -11.81766602 70.67352539 -13.85766602 76.11352539 C-19.79766602 76.11352539 -25.73766602 76.11352539 -31.85766602 76.11352539 C-31.0380982 71.19611851 -29.89059167 67.29580032 -27.97875977 62.79321289 C-27.69094131 62.10086044 -27.40312286 61.408508 -27.10658264 60.69517517 C-26.17503797 58.45724453 -25.23504107 56.22296844 -24.29516602 53.98852539 C-23.32966611 51.67317812 -22.36647152 49.3568804 -21.40335083 47.0405426 C-20.76790978 45.51276345 -20.13174431 43.9852854 -19.49484253 42.45811462 C-17.06665964 36.63345825 -14.68866994 30.79030931 -12.35766602 24.92602539 C-11.8981958 23.77275757 -11.8981958 23.77275757 -11.42944336 22.59619141 C-10.27155017 19.68554457 -9.1181684 16.77314087 -7.9675293 13.85961914 C-7.38886752 12.39465261 -6.80931944 10.93003576 -6.22875977 9.46582031 C-5.47904861 7.57456527 -4.73266799 5.68199088 -3.98657227 3.78930664 C-2.45106786 0.14978927 -2.45106786 0.14978927 0 0 Z " fill="#FBFBFB" transform="translate(618.857666015625,439.886474609375)"/>
<path d="M0 0 C4.44129198 3.2203464 7.53950978 6.83547571 8.703125 12.2734375 C8.95551338 14.68476973 9.04986612 17.1115864 9.1171875 19.53515625 C3.1771875 19.53515625 -2.7628125 19.53515625 -8.8828125 19.53515625 C-9.5428125 17.22515625 -10.2028125 14.91515625 -10.8828125 12.53515625 C-14.47088207 8.94708668 -18.39605474 8.39032746 -23.3203125 8.34765625 C-28.09245306 8.40259866 -31.42679925 9.079143 -34.8828125 12.53515625 C-35.04958532 16.11859601 -35.04958532 16.11859601 -34.8828125 19.53515625 C-29.02584081 22.57210453 -23.48742711 24.12980244 -17.0703125 25.41015625 C-6.91269266 27.50881211 2.51954334 30.44083409 9.12890625 38.921875 C12.31647502 44.12529754 11.7261938 50.68731169 11.1171875 56.53515625 C8.84450235 62.6968759 4.0660956 67.70964554 -1.90234375 70.46875 C-13.09820603 74.81000272 -27.63307372 75.75903742 -39.1328125 72.03515625 C-46.49068801 68.68960395 -52.24709164 63.85117443 -55.4453125 56.34765625 C-56.78121553 52.67243858 -56.8828125 50.65024356 -56.8828125 46.53515625 C-50.9428125 46.53515625 -45.0028125 46.53515625 -38.8828125 46.53515625 C-38.2228125 48.84515625 -37.5628125 51.15515625 -36.8828125 53.53515625 C-34.46855882 56.53447976 -31.53911801 58.31638775 -27.8828125 59.53515625 C-20.65163337 60.04329316 -14.23558739 60.28906869 -7.8828125 56.53515625 C-6.48346237 53.73645598 -6.63015845 51.63016833 -6.8828125 48.53515625 C-9.32246776 45.00525212 -13.14816438 44.2871189 -17.0703125 43.16015625 C-17.77285156 42.94738037 -18.47539063 42.73460449 -19.19921875 42.51538086 C-22.86029544 41.40834488 -26.53362314 40.35027755 -30.21484375 39.3125 C-39.24891465 36.71592472 -47.41434559 34.29836626 -52.3828125 25.72265625 C-54.5700048 20.5964243 -54.87068574 15.73259211 -53.22265625 10.3984375 C-50.22436422 3.58413744 -45.16086007 -0.59561551 -38.5703125 -3.83984375 C-26.57097979 -8.26356088 -10.8575161 -6.44312807 0 0 Z " fill="#FAFAFA" transform="translate(1019.8828125,443.46484375)"/>
<path d="M0 0 C0.92441895 0.00644531 1.84883789 0.01289063 2.80126953 0.01953125 C11.30639532 0.2462153 18.36376721 1.71259686 24.953125 7.40234375 C30.34545525 13.1125146 31.75 17.59480842 31.75 25.5 C26.14 25.5 20.53 25.5 14.75 25.5 C13.76 23.19 12.77 20.88 11.75 18.5 C7.15986867 14.19675188 2.43090312 14.229789 -3.578125 14.26953125 C-7.30486847 14.59099012 -9.63915392 15.88915392 -12.25 18.5 C-12.32148199 19.85243917 -12.33399454 21.20834367 -12.3125 22.5625 C-12.291875 23.861875 -12.27125 25.16125 -12.25 26.5 C-6.34326555 28.68767943 -0.46162172 30.14298137 5.6875 31.4375 C25.94687458 35.79063418 25.94687458 35.79063418 32 44.24609375 C35.04933492 49.50831408 35.76182429 54.51939569 34.75 60.5 C32.6611333 67.30890202 29.41676158 71.47111818 23.421875 75.24609375 C15.99898487 78.72964306 9.50158986 79.98283001 1.3125 79.875 C-0.00331055 79.89240234 -0.00331055 79.89240234 -1.34570312 79.91015625 C-10.88539962 79.86797631 -18.90729354 77.71670757 -26.265625 71.51953125 C-32.30283145 65.37536642 -33.25 61.23835999 -33.25 52.5 C-27.64 52.5 -22.03 52.5 -16.25 52.5 C-15.693125 53.923125 -15.13625 55.34625 -14.5625 56.8125 C-12.79800522 60.81244013 -11.40105367 62.75218793 -7.25 64.5 C-6.59 64.83 -5.93 65.16 -5.25 65.5 C1.97425081 66.02540006 8.40625527 66.24857643 14.75 62.5 C16.2283226 59.54335481 15.81032783 56.75770263 15.75 53.5 C10.94643875 50.51719353 6.60915528 48.69769689 1.0625 47.5 C-0.34840769 47.16723258 -1.75856325 46.83126093 -3.16796875 46.4921875 C-4.2031665 46.2442041 -4.2031665 46.2442041 -5.25927734 45.99121094 C-14.78135454 43.64163781 -23.05401926 40.87610033 -29.25 32.9375 C-31.02991303 26.81904897 -31.55762793 20.1381115 -29.37109375 14.0546875 C-23.12514435 3.21188425 -11.83780925 -0.08601496 0 0 Z " fill="#FAFAFA" transform="translate(2074.25,437.5)"/>
<path d="M0 0 C5.3945343 3.22147102 9.27358176 7.89855915 11 14 C11 16.31 11 18.62 11 21 C5.06 21 -0.88 21 -7 21 C-7.66 18.69 -8.32 16.38 -9 14 C-12.84943054 10.15056946 -17.17994654 9.82604857 -22.4375 9.6875 C-26.13183689 9.73195058 -27.83567247 9.91622518 -31.1875 11.625 C-33.23352299 13.9197011 -33.23352299 13.9197011 -33.5 17.0625 C-32.94286003 20.33569733 -32.49034692 20.96299467 -30 23 C-27.20142356 23.92416758 -24.47474411 24.71691891 -21.625 25.4375 C-19.99578249 25.87122832 -18.3668777 26.30613295 -16.73828125 26.7421875 C-15.93471191 26.95456055 -15.13114258 27.16693359 -14.30322266 27.38574219 C6.8797244 33.03512684 6.8797244 33.03512684 12 41 C14.80437249 47.30983811 14.94974874 53.18881744 12.5 59.5625 C9.22412626 66.18273264 4.02982286 70.38247698 -2.625 73.4375 C-13.25678841 76.85751585 -27.51867195 76.93992155 -37.9375 72.875 C-44.91559195 69.29057004 -49.74956353 65.3209274 -53.37109375 58.3203125 C-54 56 -54 56 -54 48 C-48.39 48 -42.78 48 -37 48 C-36.4121875 49.85625 -36.4121875 49.85625 -35.8125 51.75 C-34.33050669 55.71837071 -32.65650816 57.7146824 -29 60 C-22.83302359 62.0556588 -14.81571646 62.12710804 -8.75 59.625 C-5.9172357 58.28657593 -5.9172357 58.28657593 -5 56 C-4.55748413 51.84784954 -4.55748413 51.84784954 -6.3125 48.25 C-9.6350311 45.78886585 -12.18884045 44.57154929 -16.19140625 43.66796875 C-17.21943359 43.42626953 -18.24746094 43.18457031 -19.30664062 42.93554688 C-21.44868961 42.44340245 -23.59189989 41.95628095 -25.73632812 41.47460938 C-35.36986404 39.19345513 -44.27531526 36.49469349 -50 28 C-52.00275208 21.99174376 -52.4178856 14.37990441 -49.94140625 8.4765625 C-38.9012483 -7.14122192 -16.01011295 -7.4283233 0 0 Z " fill="#FAFAFA" transform="translate(1956,442)"/>
<path d="M0 0 C22.11 0 44.22 0 67 0 C67 4.95 67 9.9 67 15 C59.08 15 51.16 15 43 15 C43 35.46 43 55.92 43 77 C37.06 77 31.12 77 25 77 C25 56.54 25 36.08 25 15 C16.75 15 8.5 15 0 15 C0 10.05 0 5.1 0 0 Z " fill="#F5F4F4" transform="translate(1101,439)"/>
<path d="M0 0 C5.94 0 11.88 0 18 0 C18.06793904 7.83250019 18.12290983 15.66483759 18.15543652 23.49755192 C18.17105247 27.13511722 18.19221541 30.77246942 18.22631836 34.40991211 C18.25905835 37.92421483 18.27688359 41.43831335 18.28463173 44.95275688 C18.29282327 46.93740962 18.31621919 48.92198091 18.33988953 50.9065094 C18.34148717 59.51357735 17.67089005 66.00992086 11.60546875 72.64453125 C4.09389452 78.98641995 -5.77464554 78.91203542 -15.09716797 78.21875 C-22.58048087 77.35846666 -26.91785397 73.65498527 -31.58984375 68 C-36.13626661 61.5518878 -35.14442806 55.79911532 -35 48 C-29.72 48 -24.44 48 -19 48 C-18.7525 49.7325 -18.505 51.465 -18.25 53.25 C-17.62965063 56.52898951 -17.12206146 58.79005429 -15.4375 61.6875 C-11.80960451 63.64098219 -8.01275786 64.00503696 -4 63 C-0.941047 59.82525443 -0.61389825 57.46087655 -0.56762695 53.12988281 C-0.54783279 51.94896057 -0.52803864 50.76803833 -0.50764465 49.55133057 C-0.50125473 48.28142273 -0.49486481 47.01151489 -0.48828125 45.703125 C-0.47033005 44.39921814 -0.45237885 43.09531128 -0.43388367 41.75189209 C-0.38643011 38.29304007 -0.3565912 34.83425306 -0.33044434 31.37518311 C-0.30061503 27.84243938 -0.25409294 24.30991957 -0.20898438 20.77734375 C-0.12300436 13.85167509 -0.05717934 6.92596572 0 0 Z " fill="#F9F9F9" transform="translate(97,439)"/>
<path d="M0 0 C5.94 0 11.88 0 18 0 C18 20.46 18 40.92 18 62 C30.87 62 43.74 62 57 62 C57 66.62 57 71.24 57 76 C38.19 76 19.38 76 0 76 C0 50.92 0 25.84 0 0 Z " fill="#F8F8F8" transform="translate(738,439)"/>
<path d="M0 0 C5.94 0 11.88 0 18 0 C18 20.13 18 40.26 18 61 C30.87 61 43.74 61 57 61 C57 65.62 57 70.24 57 75 C38.19 75 19.38 75 0 75 C0 50.25 0 25.5 0 0 Z " fill="#FCFCFC" transform="translate(1635,440)"/>
<path d="M0 0 C20 0 20 0 28 4 C33.79466807 9.79466807 35.29058378 15.1798098 35.375 23.25 C35.25846085 31.15135458 34.23053223 37.76946777 28.5 43.5 C18.01877499 49.78873501 17.56590737 47 0 47 C0 31.49 0 15.98 0 0 Z " fill="#242021" transform="translate(464,454)"/>
<path d="M0 0 C5.94 0 11.88 0 18 0 C18 25.08 18 50.16 18 76 C12.06 76 6.12 76 0 76 C0 50.92 0 25.84 0 0 Z " fill="#FDFDFD" transform="translate(1386,440)"/>
<path d="M0 0 C5.94 0 11.88 0 18 0 C18 24.75 18 49.5 18 75 C12.06 75 6.12 75 0 75 C0 50.25 0 25.5 0 0 Z " fill="#FBFBFB" transform="translate(197,440)"/>
<path d="M0 0 C3.01164025 1.50582012 3.10153074 3.64309803 4.1640625 6.78515625 C4.56367187 7.95498047 4.96328125 9.12480469 5.375 10.33007812 C5.99375 12.17762695 5.99375 12.17762695 6.625 14.0625 C7.04523438 15.29806641 7.46546875 16.53363281 7.8984375 17.80664062 C8.93888337 20.868862 9.97028266 23.93415434 11 27 C4.4 27 -2.2 27 -9 27 C-6.75 16.875 -6.75 16.875 -5.2734375 13.18359375 C-4.9640625 12.40048828 -4.6546875 11.61738281 -4.3359375 10.81054688 C-4.01882813 10.02744141 -3.70171875 9.24433594 -3.375 8.4375 C-3.05015625 7.61958984 -2.7253125 6.80167969 -2.390625 5.95898438 C-1.59978204 3.97024694 -0.80075781 1.98476601 0 0 Z " fill="#292627" transform="translate(1273,459)"/>
<path d="M0 0 C1.8256187 2.73842805 2.83122636 4.97017534 3.9453125 8.03515625 C4.29980469 9.00904297 4.65429688 9.98292969 5.01953125 10.98632812 C5.38433594 12.00146484 5.74914062 13.01660156 6.125 14.0625 C6.49753906 15.08150391 6.87007812 16.10050781 7.25390625 17.15039062 C10 24.73986951 10 24.73986951 10 27 C3.4 27 -3.2 27 -10 27 C-8.22791495 20.69925317 -6.16529328 14.56502704 -3.875 8.4375 C-3.60929199 7.72271484 -3.34358398 7.00792969 -3.06982422 6.27148438 C-1.12600343 1.12600343 -1.12600343 1.12600343 0 0 Z " fill="#292627" transform="translate(626,459)"/>
</svg>
